<svg id="Calque_1" data-name="Calque 1" xmlns="http://www.w3.org/2000/svg" viewBox="0 0 100.24 110.26"><defs><style>.cls-1{fill:#e84e1c;}.cls-2{fill:#243878;}</style></defs><title>logo_amana</title><path class="cls-1" d="M39.74-.26c4.5,12.83,11.44,24.63,18.52,36.18-2.16,1-4.25,3-6.77,2.36-6.05-1.45-12.09.78-17.6,3.11A204.72,204.72,0,0,1,39.74-.26Z" transform="translate(-0.37 0.26)"/><path class="cls-1" d="M55.15,72.5c7-.19,12-5.57,16.85-9.84,4.67,8.06,9,16.29,13.37,24.54,2.06,4,4.29,8,5.67,12.39C79.43,90.12,68,80.36,55.15,72.5Z" transform="translate(-0.37 0.26)"/><path class="cls-2" d="M81.29,32.94c1.4-1.5,2.79-3,4.33-4.39,0,.75.16,2.24.2,3a27.8,27.8,0,0,1,7.05,1.33c2.32.61,4.83.14,7.12.91,1.09,1.64.59,3.64-.23,5.27-4-1-7.49,1.79-11,3.27-2.44,1.07-5.94.61-7.09-2.09-1-1.76-.11-3.68.65-5.32-.35-.66-.69-1.32-1-2m4.33.93c-.63,2,3.06,2.41,3.09.44C88.17,33.12,86.54,33.25,85.62,33.87Z" transform="translate(-0.37 0.26)"/><path class="cls-2" d="M55.47,40.46a72.77,72.77,0,0,1,25-7.74c-6.88,3-13.85,6.14-19.59,11.11C59.13,42.63,57.33,41.48,55.47,40.46Z" transform="translate(-0.37 0.26)"/><path class="cls-2" d="M64.38,48.47A203.73,203.73,0,0,1,81.11,34.74c-1.2,2.8-1.68,6.18,1,8.33-5.6,2.6-11.19,5.23-16.84,7.72C65,50.21,64.6,49.06,64.38,48.47Z" transform="translate(-0.37 0.26)"/><path class="cls-2" d="M61.86,44.94c4.9-3.67,10-7.28,15.72-9.51-4.76,3.89-9.73,7.5-14.3,11.61C62.81,46.33,62.33,45.64,61.86,44.94Z" transform="translate(-0.37 0.26)"/><path class="cls-2" d="M24.48,49.35c6.9-2.78,13.06-7.57,20.62-8.48,7.75-1.56,16.16,3.32,18.81,10.72-6.71,3.25-13.21,7-20.19,9.67-6.38,2.54-13.43,2.79-20.2,2.23,7-.76,14.65-2.34,19.56-7.67-4.41,2.12-8.8,4.5-13.7,5.24-7.07,1.14-14.8.7-21.1-3,8.25,1.42,17.2,1.2,24.76-2.77,1.19-.67,2.62-1.22,3.23-2.55-11.21,5-24.81,6.64-35.9.42A54.83,54.83,0,0,0,24.48,49.35Z" transform="translate(-0.37 0.26)"/><path class="cls-2" d="M46.78,62C59.37,56.58,71.23,49.6,83.9,44.39c1.41-.22,1.81,1.41,1.41,2.47C84,52,80.64,56.36,78.3,61.1c-.92,1.29-1.24,3.33-2.8,4-1-1.36-2.28-3.21-1.29-4.94,1.63-2.72,3.89-5.08,5-8.09-2.56,1.49-4.22,4-6.35,6.05-4.25,4.18-8.54,8.73-14.2,11a11.2,11.2,0,0,1-5.83.46c-1.26,4.1-3.32,8-6.73,10.77-2,2-4.94,2.87-6.7,5.11C34.09,93.51,29.13,101.9,23.76,110c1.68-6.22,3.47-12.41,5.25-18.59.43-2.42,3.75-2.7,4.1-5.19,1.2-5.11,1.6-10.45,3.56-15.37C38.49,66.52,42.55,63.68,46.78,62Z" transform="translate(-0.37 0.26)"/><path class="cls-2" d="M33.06,69.59a20.16,20.16,0,0,1,6.36-5.36,26,26,0,0,0-5.52,8.63c-1.64,3.75-1.61,7.9-2.36,11.85-.36,1.91-2.64,2.09-4.19,1.86.12-.54.35-1.62.47-2.15a13.85,13.85,0,0,1-6,1.54l1.48-2.27L20,83.31c2-.85,4.18-1.38,5.78-2.92C29,77.39,30.32,73,33.06,69.59Z" transform="translate(-0.37 0.26)"/></svg>