<svg width="101" height="111" viewBox="0 0 101 111" fill="none" xmlns="http://www.w3.org/2000/svg">
<g clip-path="url(#clip0_761_12)">
<path d="M39.37 0C43.87 12.83 50.81 24.63 57.89 36.18C55.73 37.18 53.64 39.18 51.12 38.54C45.07 37.09 39.03 39.32 33.52 41.65C34.0349 27.6026 35.9953 13.6457 39.37 0Z" fill="#626262" fill-opacity="0.05"/>
<path d="M54.78 72.7599C61.78 72.5699 66.78 67.1899 71.63 62.9199C76.3 70.9799 80.63 79.2099 85 87.4599C87.06 91.4599 89.29 95.4599 90.67 99.8499C79.06 90.3799 67.63 80.6199 54.78 72.7599Z" fill="#626262" fill-opacity="0.05"/>
<path d="M80.92 33.2001C82.32 31.7001 83.71 30.2001 85.25 28.8101C85.25 29.5601 85.41 31.0501 85.45 31.8101C87.8476 31.947 90.2173 32.3941 92.5 33.1401C94.82 33.7501 97.33 33.2801 99.62 34.0501C100.71 35.6901 100.21 37.6901 99.39 39.3201C95.39 38.3201 91.9 41.1101 88.39 42.5901C85.95 43.6601 82.45 43.2001 81.3 40.5001C80.3 38.7401 81.19 36.8201 81.95 35.1801C81.6 34.5201 81.26 33.8601 80.95 33.1801M85.28 34.1101C84.65 36.1101 88.34 36.5201 88.37 34.5501C87.8 33.3801 86.17 33.5101 85.25 34.1301L85.28 34.1101Z" fill="white" fill-opacity="0.05"/>
<path d="M55.1 40.72C62.8971 36.6504 71.3674 34.028 80.1 32.98C73.22 35.98 66.25 39.12 60.51 44.09C58.76 42.89 56.96 41.74 55.1 40.72Z" fill="white" fill-opacity="0.05"/>
<path d="M64.01 48.73C69.3395 43.8601 74.924 39.277 80.74 35C79.54 37.8 79.06 41.18 81.74 43.33C76.14 45.93 70.55 48.56 64.9 51.05C64.63 50.47 64.23 49.32 64.01 48.73Z" fill="white" fill-opacity="0.05"/>
<path d="M61.49 45.1999C66.39 41.5299 71.49 37.9199 77.21 35.6899C72.45 39.5799 67.48 43.1899 62.91 47.2999C62.44 46.5899 61.96 45.8999 61.49 45.1999Z" fill="white" fill-opacity="0.05"/>
<path d="M24.11 49.6099C31.01 46.8299 37.17 42.0399 44.73 41.1299C52.48 39.5699 60.89 44.4499 63.54 51.8499C56.83 55.0999 50.33 58.8499 43.35 61.5199C36.97 64.0599 29.92 64.3099 23.15 63.7499C30.15 62.9899 37.8 61.4099 42.71 56.0799C38.3 58.1999 33.91 60.5799 29.01 61.3199C21.94 62.4599 14.21 62.0199 7.91 58.3199C16.16 59.7399 25.11 59.5199 32.67 55.5499C33.86 54.8799 35.29 54.3299 35.9 52.9999C24.69 57.9999 11.09 59.6399 0 53.4199C8.22085 53.9776 16.4617 52.6754 24.11 49.6099Z" fill="white" fill-opacity="0.05"/>
<path d="M46.41 62.26C59 56.84 70.86 49.86 83.53 44.65C84.94 44.43 85.34 46.06 84.94 47.12C83.63 52.26 80.27 56.62 77.93 61.36C77.01 62.65 76.69 64.69 75.13 65.36C74.13 64 72.85 62.15 73.84 60.42C75.47 57.7 77.73 55.34 78.84 52.33C76.28 53.82 74.62 56.33 72.49 58.38C68.24 62.56 63.95 67.11 58.29 69.38C56.4217 70.047 54.4098 70.2057 52.46 69.84C51.2 73.94 49.14 77.84 45.73 80.61C43.73 82.61 40.79 83.48 39.03 85.72C33.72 93.77 28.76 102.16 23.39 110.26C25.07 104.04 26.86 97.85 28.64 91.67C29.07 89.25 32.39 88.97 32.74 86.48C33.94 81.37 34.34 76.03 36.3 71.11C38.12 66.78 42.18 63.94 46.41 62.26Z" fill="white" fill-opacity="0.05"/>
<path d="M32.69 69.85C34.4144 67.6407 36.5805 65.8152 39.05 64.49C36.6559 66.9721 34.7795 69.9057 33.53 73.12C31.89 76.87 31.92 81.02 31.17 84.97C30.81 86.88 28.53 87.06 26.98 86.83C27.1 86.29 27.33 85.21 27.45 84.68C25.5919 85.6397 23.5406 86.1662 21.45 86.22L22.93 83.95L19.63 83.57C21.63 82.72 23.81 82.19 25.41 80.65C28.63 77.65 29.95 73.26 32.69 69.85Z" fill="white" fill-opacity="0.05"/>
</g>
<defs>
<clipPath id="clip0_761_12">
<rect width="100.24" height="110.26" fill="white"/>
</clipPath>
</defs>
</svg>
